<?xml version="1.0" encoding="UTF-8"?>
<svg height="16px" viewBox="0 0 16 16" width="16px" xmlns="http://www.w3.org/2000/svg">
    <g fill="#ffffff">
        <path d="m 0.292969 9.085938 v 6.058593 c 0 0.4375 0.339843 0.792969 0.765625 0.792969 h 5.960937 c -0.050781 -3.789062 -3.046875 -6.847656 -6.726562 -6.851562 z m 0 0"/>
        <path d="m 0.292969 4.09375 v 2.578125 c 4.9375 0.042969 8.945312 4.175781 8.996093 9.265625 h 2.578126 c -0.050782 -6.539062 -5.222657 -11.839844 -11.574219 -11.84375 z m 0 0"/>
        <path d="m 15.539062 15.140625 v -5.386719 c -1.734374 -4.464844 -5.265624 -8 -9.664062 -9.644531 h -4.816406 c -0.421875 0 -0.765625 0.351563 -0.765625 0.789063 v 0.777343 c 7.609375 0.046875 13.792969 6.417969 13.839843 14.261719 h 0.648438 c 0.417969 -0.003906 0.757812 -0.355469 0.757812 -0.796875 z m 0 0"/>
        <path d="m 13.53125 2.316406 c 0.722656 0.746094 1.425781 1.640625 2.011719 2.476563 v -3.894531 c 0 -0.433594 -0.335938 -0.789063 -0.761719 -0.789063 h -3.851562 c 0.894531 0.652344 1.804687 1.386719 2.601562 2.207031 z m 0 0"/>
    </g>
</svg>
