<?xml version="1.0" encoding="UTF-8"?>
<svg height="128px" viewBox="0 0 128 128" width="128px" xmlns="http://www.w3.org/2000/svg" xmlns:xlink="http://www.w3.org/1999/xlink">
    <filter id="a" height="100%" width="100%" x="0%" y="0%">
        <feColorMatrix color-interpolation-filters="sRGB" values="0 0 0 0 1 0 0 0 0 1 0 0 0 0 1 0 0 0 1 0"/>
    </filter>
    <linearGradient id="b" gradientUnits="userSpaceOnUse" x1="79.26193486926" x2="79.26193486926" y1="82.6753293016" y2="145.98262312717">
        <stop offset="0" stop-color="#5c005c"/>
        <stop offset="1" stop-color="#3d003d"/>
    </linearGradient>
    <clipPath id="c">
        <rect height="128" width="128"/>
    </clipPath>
    <clipPath id="d">
        <rect height="128" width="128"/>
    </clipPath>
    <mask id="e">
        <g filter="url(#a)">
            <g clip-path="url(#d)" filter="url(#a)">
                <g clip-path="url(#c)">
                    <path d="m 14.773438 53.601562 v 15.097657 c 23.859374 0.03125 43.324218 19.171875 43.644531 42.804687 h 14.710937 c -0.355468 -31.8125 -26.347656 -57.613281 -58.355468 -57.902344 z m 0 0" fill="#ffffff"/>
                    <path d="m 14.773438 22.367188 v 15.101562 c 41.1875 0.03125 74.714843 33.136719 75.039062 74.003906 h 14.710938 c -0.324219 -48.980468 -40.414063 -88.78125 -89.75 -89.105468 z m 0 0" fill="#ffffff"/>
                    <path d="m 113.640625 72.871094 v -31.007813 c -3.816406 -5.203125 -8.375 -10.796875 -13.0625 -15.453125 c -5.171875 -5.140625 -11.023437 -9.730468 -16.910156 -13.804687 h -32.71875 c 28.550781 10.28125 51.441406 32.363281 62.691406 60.265625 z m 0 0" fill="#ffffff"/>
                    <path d="m 14.773438 68.699219 v 37.859375 c 0 2.714844 2.199218 4.945312 4.945312 4.945312 h 38.667969 c -0.324219 -23.664062 -19.753907 -42.773437 -43.613281 -42.804687 z m 0 0" fill="#660066"/>
                    <path d="m 14.773438 37.5 v 16.101562 c 32.007812 0.289063 58 26.089844 58.324218 57.902344 h 16.714844 c -0.324219 -40.867187 -33.851562 -73.972656 -75.039062 -74.003906 z m 0 0" fill="#660066"/>
                    <path d="m 113.640625 106.527344 v -33.65625 c -11.25 -27.902344 -34.140625 -49.984375 -62.691406 -60.265625 h -31.230469 c -2.714844 0 -4.945312 2.199219 -4.945312 4.945312 v 4.851563 c 49.335937 0.289062 89.425781 40.089844 89.75 89.101562 h 4.203124 c 2.714844 -0.03125 4.914063 -2.230468 4.914063 -4.976562 z m 0 0" fill="#660066"/>
                    <path d="m 100.609375 26.410156 c 4.691406 4.65625 9.25 10.25 13.0625 15.453125 v -24.3125 c 0 -2.714843 -2.199219 -4.945312 -4.945313 -4.945312 h -24.992187 c 5.820313 4.074219 11.703125 8.664062 16.875 13.804687 z m 0 0" fill="#660066"/>
                    <path d="m 19.71875 111.503906 c -2.746094 0 -4.945312 -2.230468 -4.945312 -4.945312 v 4.945312 c 0 2.714844 2.199218 4.949219 4.945312 4.949219 h 89.007812 c 2.714844 -0.035156 4.914063 -2.234375 4.914063 -4.980469 v -4.945312 c 0 2.714844 -2.714844 4.976562 -4.914063 4.976562 z m 0 0" fill="url(#b)"/>
                </g>
            </g>
        </g>
    </mask>
    <mask id="f">
        <g filter="url(#a)">
            <rect fill-opacity="0.8" height="184.32" width="184.32" x="-28.16" y="-28.16"/>
        </g>
    </mask>
    <linearGradient id="g" gradientTransform="matrix(0 0.37 -0.98462 0 295.38501 -30.360001)" gradientUnits="userSpaceOnUse" x1="300" x2="428" y1="235" y2="235">
        <stop offset="0" stop-color="#f9f06b"/>
        <stop offset="1" stop-color="#f5c211"/>
    </linearGradient>
    <clipPath id="h">
        <rect height="128" width="128"/>
    </clipPath>
    <clipPath id="i">
        <rect height="128" width="128"/>
    </clipPath>
    <path d="m 14.773438 53.601562 v 15.097657 c 23.859374 0.03125 43.324218 19.171875 43.644531 42.804687 h 14.710937 c -0.355468 -31.8125 -26.347656 -57.613281 -58.355468 -57.902344 z m 0 0" fill="#ffffff"/>
    <path d="m 14.773438 22.367188 v 15.101562 c 41.1875 0.03125 74.714843 33.136719 75.039062 74.003906 h 14.710938 c -0.324219 -48.980468 -40.414063 -88.78125 -89.75 -89.105468 z m 0 0" fill="#ffffff"/>
    <path d="m 113.640625 72.871094 v -31.007813 c -3.816406 -5.203125 -8.375 -10.796875 -13.0625 -15.453125 c -5.171875 -5.140625 -11.023437 -9.730468 -16.910156 -13.804687 h -32.71875 c 28.550781 10.28125 51.441406 32.363281 62.691406 60.265625 z m 0 0" fill="#ffffff"/>
    <g fill="#660066">
        <path d="m 14.773438 68.699219 v 37.859375 c 0 2.714844 2.199218 4.945312 4.945312 4.945312 h 38.667969 c -0.324219 -23.664062 -19.753907 -42.773437 -43.613281 -42.804687 z m 0 0"/>
        <path d="m 14.773438 37.5 v 16.101562 c 32.007812 0.289063 58 26.089844 58.324218 57.902344 h 16.714844 c -0.324219 -40.867187 -33.851562 -73.972656 -75.039062 -74.003906 z m 0 0"/>
        <path d="m 113.640625 106.527344 v -33.65625 c -11.25 -27.902344 -34.140625 -49.984375 -62.691406 -60.265625 h -31.230469 c -2.714844 0 -4.945312 2.199219 -4.945312 4.945312 v 4.851563 c 49.335937 0.289062 89.425781 40.089844 89.75 89.101562 h 4.203124 c 2.714844 -0.03125 4.914063 -2.230468 4.914063 -4.976562 z m 0 0"/>
        <path d="m 100.609375 26.410156 c 4.691406 4.65625 9.25 10.25 13.0625 15.453125 v -24.3125 c 0 -2.714843 -2.199219 -4.945312 -4.945313 -4.945312 h -24.992187 c 5.820313 4.074219 11.703125 8.664062 16.875 13.804687 z m 0 0"/>
    </g>
    <path d="m 19.71875 111.503906 c -2.746094 0 -4.945312 -2.230468 -4.945312 -4.945312 v 4.945312 c 0 2.714844 2.199218 4.949219 4.945312 4.949219 h 89.007812 c 2.714844 -0.035156 4.914063 -2.234375 4.914063 -4.980469 v -4.945312 c 0 2.714844 -2.714844 4.976562 -4.914063 4.976562 z m 0 0" fill="url(#b)"/>
    <g mask="url(#e)">
        <g clip-path="url(#i)">
            <g mask="url(#f)">
                <g clip-path="url(#h)">
                    <path d="m 128 80.640625 v 47.359375 h -128 v -47.359375 z m 0 0" fill="url(#g)"/>
                    <path d="m 13.308594 80.640625 l 47.355468 47.359375 h 21.214844 l -47.359375 -47.359375 z m 42.421875 0 l 47.363281 47.359375 h 21.214844 l -47.363282 -47.359375 z m 42.429687 0 l 29.839844 29.839844 v -21.210938 l -8.628906 -8.628906 z m -98.160156 7.90625 v 21.214844 l 18.238281 18.238281 h 21.214844 z m 0 0"/>
                </g>
            </g>
        </g>
    </g>
</svg>
