<?xml version="1.0" encoding="UTF-8"?>
<svg height="16px" viewBox="0 0 16 16" width="16px" xmlns="http://www.w3.org/2000/svg">
    <g fill="#ffffff">
        <path d="m 0 9.074219 v 6.125 c 0 0.441406 0.355469 0.800781 0.800781 0.800781 h 6.253907 c -0.050782 -3.828125 -3.195313 -6.917969 -7.054688 -6.925781 z m 0 0"/>
        <path d="m 0 4.027344 v 2.605468 c 5.179688 0.046876 9.382812 4.21875 9.4375 9.367188 h 2.703125 c -0.054687 -6.609375 -5.476563 -11.96875 -12.140625 -11.972656 z m 0 0"/>
        <path d="m 15.996094 15.195312 v -5.445312 c -1.820313 -4.515625 -5.523438 -8.085938 -10.144532 -9.75 h -5.050781 c -0.441406 0 -0.800781 0.355469 -0.800781 0.800781 v 0.785157 c 7.980469 0.046874 14.46875 6.484374 14.519531 14.414062 h 0.679688 c 0.441406 -0.003906 0.796875 -0.359375 0.796875 -0.804688 z m 0 0"/>
        <path d="m 13.886719 2.234375 c 0.757812 0.753906 1.496093 1.65625 2.113281 2.5 v -3.933594 c 0 -0.441406 -0.355469 -0.800781 -0.800781 -0.800781 h -4.042969 c 0.941406 0.660156 1.894531 1.402344 2.730469 2.234375 z m 0 0"/>
    </g>
</svg>
