<?xml version="1.0" encoding="UTF-8"?>
<svg height="128px" viewBox="0 0 128 128" width="128px" xmlns="http://www.w3.org/2000/svg" xmlns:xlink="http://www.w3.org/1999/xlink">
    <filter id="a" height="100%" width="100%" x="0%" y="0%">
        <feColorMatrix color-interpolation-filters="sRGB" values="0 0 0 0 1 0 0 0 0 1 0 0 0 0 1 0 0 0 1 0"/>
    </filter>
    <clipPath id="b">
        <rect height="128" width="128"/>
    </clipPath>
    <clipPath id="c">
        <rect height="128" width="128"/>
    </clipPath>
    <mask id="d">
        <g filter="url(#a)">
            <g clip-path="url(#c)" filter="url(#a)">
                <g clip-path="url(#b)">
                    <path d="m 57.863281 112 v 4 h -37.863281 s -8 -0.015625 -8 -8.75 c 0 0 0.226562 4.707031 6 4.75" fill="#330033"/>
                    <path d="m 57.859375 112 h 15.472656 v 3.996094 h -15.46875 z m 0 0" fill="#e5e5e5"/>
                    <path d="m 73.328125 112 h 17.582031 v 3.996094 h -17.574218 z m 0 0" fill="#330033"/>
                    <path d="m 90.910156 112 h 15.46875 v 4 h -15.46875 z m 0 0" fill="#e5e5e5"/>
                    <path d="m 106.378906 112 h 3.808594 s 5.777344 -0.675781 5.777344 -5.089844 c 0 0 0.304687 9.085938 -7.964844 9.085938 h -1.625 z m 0 0" fill="#330033"/>
                    <path d="m 12 53.453125 v 15.265625 c 25.089844 0.03125 45.558594 19.382812 45.898438 43.28125 h 15.46875 c -0.375 -32.167969 -27.710938 -58.253906 -61.367188 -58.546875 z m 0 0" fill="#ffffff"/>
                    <path d="m 12 21.871094 v 15.269531 c 43.3125 0.03125 78.570312 33.507813 78.910156 74.828125 h 15.46875 c -0.339844 -49.527344 -42.496094 -89.769531 -94.378906 -90.097656 z m 0 0" fill="#ffffff"/>
                    <path d="m 115.964844 72.933594 v -31.347656 c -4.011719 -5.265626 -8.804688 -10.917969 -13.734375 -15.628907 c -5.4375 -5.195312 -11.59375 -9.839843 -17.78125 -13.957031 h -34.40625 c 30.019531 10.394531 54.089843 32.722656 65.921875 60.933594 z m 0 0" fill="#ffffff"/>
                    <path d="m 12 68.71875 v 38.28125 c 0 2.746094 2.3125 5 5.203125 5 h 40.660156 c -0.339843 -23.929688 -20.773437 -43.25 -45.863281 -43.28125 z m 0 0" fill="#660066"/>
                    <path d="m 12 37.171875 v 16.28125 c 33.65625 0.292969 60.992188 26.378906 61.332031 58.546875 h 17.578125 c -0.339844 -41.320312 -35.597656 -74.796875 -78.910156 -74.828125 z m 0 0" fill="#660066"/>
                    <path d="m 115.964844 106.964844 v -34.03125 c -11.832032 -28.210938 -35.902344 -50.539063 -65.921875 -60.933594 h -32.839844 c -2.855469 0 -5.203125 2.222656 -5.203125 5 v 4.90625 c 51.882812 0.292969 94.039062 40.535156 94.378906 90.09375 h 4.417969 c 2.855469 -0.03125 5.167969 -2.253906 5.167969 -5.035156 z m 0 0" fill="#660066"/>
                    <path d="m 102.265625 25.957031 c 4.929687 4.710938 9.722656 10.363281 13.734375 15.628907 v -24.585938 c 0 -2.746094 -2.3125 -5 -5.203125 -5 h -26.277344 c 6.117188 4.117188 12.304688 8.761719 17.746094 13.957031 z m 0 0" fill="#660066"/>
                    <path d="m -343.600567 254.165224 h 9.209646 c 4.522651 0 8.188142 3.665492 8.188142 8.188144 v 9.209649 c 0 4.522652 -3.665491 8.188144 -8.188142 8.188144 h -9.209646 c -4.522651 0 -8.188142 -3.665492 -8.188142 -8.188144 v -9.209649 c 0 -4.522652 3.665491 -8.188144 8.188142 -8.188144 z m 0 0" fill="none" stroke="#000000" stroke-width="0.812343" transform="matrix(2.424428 0 0 2.424428 885.87085 -585.220786)"/>
                    <path d="m 52.835938 30.984375 h 22.328124 c 10.964844 0 19.851563 8.886719 19.851563 19.851563 v 22.328124 c 0 10.964844 -8.886719 19.851563 -19.851563 19.851563 h -22.328124 c -10.964844 0 -19.851563 -8.886719 -19.851563 -19.851563 v -22.328124 c 0 -10.964844 8.886719 -19.851563 19.851563 -19.851563 z m 0 0" fill="#ffffff"/>
                    <path d="m 54.363281 45.039062 c -4.242187 0 -6.511719 2.644532 -6.816406 7.933594 h 1.257813 c 0.492187 -3.125 1.515624 -4.683594 3.074218 -4.683594 c 1.074219 0 1.808594 0.382813 2.203125 1.152344 c 0.394531 0.769532 0.59375 2.203125 0.59375 4.296875 v 11.566407 c 0 3.167968 0.316407 5.625 0.945313 7.371093 c 0.628906 1.75 1.875 3.234375 3.738281 4.457031 c 1.863281 1.222657 3.925781 1.835938 6.183594 1.835938 c 4.078125 0 7.582031 -1.773438 10.515625 -5.3125 c 2.9375 -3.539062 4.402344 -7.769531 4.402344 -12.683594 c 0 -4.007812 -1.003907 -7.535156 -3.019532 -10.585937 c -2.015625 -3.054688 -5.132812 -4.835938 -9.347656 -5.347657 l -0.210938 1.257813 c 2.144532 0.699219 3.726563 2.160156 4.753907 4.386719 c 1.023437 2.222656 1.535156 5.675781 1.535156 10.359375 c 0 5.242187 -0.6875 9.160156 -2.058594 11.757812 c -1.375 2.597657 -3.179687 3.894531 -5.417969 3.894531 c -1.328124 0 -2.542968 -0.441406 -3.652343 -1.328124 c -1.105469 -0.882813 -1.816407 -2.019532 -2.128907 -3.40625 c -0.316406 -1.386719 -0.472656 -3.453126 -0.472656 -6.203126 v -11.738281 c 0 -2.5625 -0.179687 -4.328125 -0.542968 -5.292969 c -0.359376 -0.96875 -1.011719 -1.824218 -1.957032 -2.570312 c -0.941406 -0.746094 -2.136718 -1.117188 -3.578125 -1.117188 z m 0 0"/>
                </g>
            </g>
        </g>
    </mask>
    <mask id="e">
        <g filter="url(#a)">
            <rect fill-opacity="0.8" height="184.32" width="184.32" x="-28.16" y="-28.16"/>
        </g>
    </mask>
    <linearGradient id="f" gradientTransform="matrix(0 0.37 -0.98462 0 295.38501 -30.360001)" gradientUnits="userSpaceOnUse" x1="300" x2="428" y1="235" y2="235">
        <stop offset="0" stop-color="#f9f06b"/>
        <stop offset="1" stop-color="#f5c211"/>
    </linearGradient>
    <clipPath id="g">
        <rect height="128" width="128"/>
    </clipPath>
    <clipPath id="h">
        <rect height="128" width="128"/>
    </clipPath>
    <path d="m 57.863281 112 v 4 h -37.863281 s -8 -0.015625 -8 -8.75 c 0 0 0.226562 4.707031 6 4.75" fill="#330033"/>
    <path d="m 57.859375 112 h 15.472656 v 3.996094 h -15.46875 z m 0 0" fill="#e5e5e5"/>
    <path d="m 73.328125 112 h 17.582031 v 3.996094 h -17.574218 z m 0 0" fill="#330033"/>
    <path d="m 90.910156 112 h 15.46875 v 4 h -15.46875 z m 0 0" fill="#e5e5e5"/>
    <path d="m 106.378906 112 h 3.808594 s 5.777344 -0.675781 5.777344 -5.089844 c 0 0 0.304687 9.085938 -7.964844 9.085938 h -1.625 z m 0 0" fill="#330033"/>
    <path d="m 12 53.453125 v 15.265625 c 25.089844 0.03125 45.558594 19.382812 45.898438 43.28125 h 15.46875 c -0.375 -32.167969 -27.710938 -58.253906 -61.367188 -58.546875 z m 0 0" fill="#ffffff"/>
    <path d="m 12 21.871094 v 15.269531 c 43.3125 0.03125 78.570312 33.507813 78.910156 74.828125 h 15.46875 c -0.339844 -49.527344 -42.496094 -89.769531 -94.378906 -90.097656 z m 0 0" fill="#ffffff"/>
    <path d="m 115.964844 72.933594 v -31.347656 c -4.011719 -5.265626 -8.804688 -10.917969 -13.734375 -15.628907 c -5.4375 -5.195312 -11.59375 -9.839843 -17.78125 -13.957031 h -34.40625 c 30.019531 10.394531 54.089843 32.722656 65.921875 60.933594 z m 0 0" fill="#ffffff"/>
    <g fill="#660066">
        <path d="m 12 68.71875 v 38.28125 c 0 2.746094 2.3125 5 5.203125 5 h 40.660156 c -0.339843 -23.929688 -20.773437 -43.25 -45.863281 -43.28125 z m 0 0"/>
        <path d="m 12 37.171875 v 16.28125 c 33.65625 0.292969 60.992188 26.378906 61.332031 58.546875 h 17.578125 c -0.339844 -41.320312 -35.597656 -74.796875 -78.910156 -74.828125 z m 0 0"/>
        <path d="m 115.964844 106.964844 v -34.03125 c -11.832032 -28.210938 -35.902344 -50.539063 -65.921875 -60.933594 h -32.839844 c -2.855469 0 -5.203125 2.222656 -5.203125 5 v 4.90625 c 51.882812 0.292969 94.039062 40.535156 94.378906 90.09375 h 4.417969 c 2.855469 -0.03125 5.167969 -2.253906 5.167969 -5.035156 z m 0 0"/>
        <path d="m 102.265625 25.957031 c 4.929687 4.710938 9.722656 10.363281 13.734375 15.628907 v -24.585938 c 0 -2.746094 -2.3125 -5 -5.203125 -5 h -26.277344 c 6.117188 4.117188 12.304688 8.761719 17.746094 13.957031 z m 0 0"/>
    </g>
    <path d="m 52.83601454932 30.98449969187 h 22.32812363249 c 10.96484171863 0 19.85156073278 8.88672143858 19.85156073278 19.85156558163 v 22.32813090577 c 0 10.96484414306 -8.88671901415 19.85156558163 -19.85156073278 19.85156558163 h -22.32812363249 c -10.96484171863 0 -19.85156073278 -8.88672143858 -19.85156073278 -19.85156558163 v -22.32813090577 c 0 -10.96484414306 8.88671901415 -19.85156558163 19.85156073278 -19.85156558163 z m 0 0" fill="none" stroke="#000000" stroke-width="1.9694671148"/>
    <path d="m 52.835938 30.984375 h 22.328124 c 10.964844 0 19.851563 8.886719 19.851563 19.851563 v 22.328124 c 0 10.964844 -8.886719 19.851563 -19.851563 19.851563 h -22.328124 c -10.964844 0 -19.851563 -8.886719 -19.851563 -19.851563 v -22.328124 c 0 -10.964844 8.886719 -19.851563 19.851563 -19.851563 z m 0 0" fill="#ffffff"/>
    <path d="m 54.363281 45.039062 c -4.242187 0 -6.511719 2.644532 -6.816406 7.933594 h 1.257813 c 0.492187 -3.125 1.515624 -4.683594 3.074218 -4.683594 c 1.074219 0 1.808594 0.382813 2.203125 1.152344 c 0.394531 0.769532 0.59375 2.203125 0.59375 4.296875 v 11.566407 c 0 3.167968 0.316407 5.625 0.945313 7.371093 c 0.628906 1.75 1.875 3.234375 3.738281 4.457031 c 1.863281 1.222657 3.925781 1.835938 6.183594 1.835938 c 4.078125 0 7.582031 -1.773438 10.515625 -5.3125 c 2.9375 -3.539062 4.402344 -7.769531 4.402344 -12.683594 c 0 -4.007812 -1.003907 -7.535156 -3.019532 -10.585937 c -2.015625 -3.054688 -5.132812 -4.835938 -9.347656 -5.347657 l -0.210938 1.257813 c 2.144532 0.699219 3.726563 2.160156 4.753907 4.386719 c 1.023437 2.222656 1.535156 5.675781 1.535156 10.359375 c 0 5.242187 -0.6875 9.160156 -2.058594 11.757812 c -1.375 2.597657 -3.179687 3.894531 -5.417969 3.894531 c -1.328124 0 -2.542968 -0.441406 -3.652343 -1.328124 c -1.105469 -0.882813 -1.816407 -2.019532 -2.128907 -3.40625 c -0.316406 -1.386719 -0.472656 -3.453126 -0.472656 -6.203126 v -11.738281 c 0 -2.5625 -0.179687 -4.328125 -0.542968 -5.292969 c -0.359376 -0.96875 -1.011719 -1.824218 -1.957032 -2.570312 c -0.941406 -0.746094 -2.136718 -1.117188 -3.578125 -1.117188 z m 0 0"/>
    <g mask="url(#d)">
        <g clip-path="url(#h)">
            <g mask="url(#e)">
                <g clip-path="url(#g)">
                    <path d="m 128 80.640625 v 47.359375 h -128 v -47.359375 z m 0 0" fill="url(#f)"/>
                    <path d="m 13.308594 80.640625 l 47.355468 47.359375 h 21.214844 l -47.359375 -47.359375 z m 42.421875 0 l 47.363281 47.359375 h 21.214844 l -47.363282 -47.359375 z m 42.429687 0 l 29.839844 29.839844 v -21.210938 l -8.628906 -8.628906 z m -98.160156 7.90625 v 21.214844 l 18.238281 18.238281 h 21.214844 z m 0 0"/>
                </g>
            </g>
        </g>
    </g>
</svg>
